<svg xmlns="http://www.w3.org/2000/svg" width="17" height="14"><path d="M0 3.5c0-.965.762-1.75 1.7-1.75h13.6c.938 0 1.7.785 1.7 1.75v7c0 .965-.762 1.75-1.7 1.75H1.7c-.938 0-1.7-.785-1.7-1.75Zm8.5 0v7h6.8v-7ZM4.734 4.809a.53.53 0 0 0-.484-.325.53.53 0 0 0-.484.325L2.063 8.746a.555.555 0 0 0 .273.723.523.523 0 0 0 .7-.278l.237-.55h1.954l.238.55a.527.527 0 0 0 .7.278.555.555 0 0 0 .272-.723ZM4.25 6.375l.504 1.172H3.746Zm7.648-1.89a.54.54 0 0 1 .532.546v.11h1.593a.54.54 0 0 1 .532.547.54.54 0 0 1-.532.546h-.05l-.043.125a5.4 5.4 0 0 1-1.051 1.786.3.3 0 0 0 .07.043l.504.312c.25.156.332.492.18.746a.525.525 0 0 1-.727.191l-.5-.308a5 5 0 0 1-.347-.234 5.3 5.3 0 0 1-.907.53l-.093.044a.53.53 0 0 1-.704-.278.555.555 0 0 1 .274-.722l.094-.043c.172-.082.336-.168.492-.27l-.324-.332a.56.56 0 0 1 0-.773.517.517 0 0 1 .75 0l.39.398.012.012c.328-.356.598-.774.793-1.23l-.938.003h-1.91a.54.54 0 0 1-.531-.546c0-.301.238-.547.531-.547h1.38v-.11c0-.3.241-.547.53-.547m0 0" style="stroke:none;fill-rule:nonzero;fill:#000;fill-opacity:1"/></svg>